<?xml version="1.0" encoding="utf-8"?>
<svg viewBox="384.0259 221.9852 35.3289 19.5616" xmlns="http://www.w3.org/2000/svg">
  <path d="M 400.788 222 C 402.715 221.999 404.498 221.936 406.264 222.078 C 406.883 222.128 407.7 222.537 408.016 223.034 C 409.611 225.541 411.127 228.102 412.532 230.716 C 412.834 231.276 412.808 232.256 412.509 232.832 C 411.414 234.948 410.14 236.974 408.895 239.128 C 408.118 241.112 406.768 241.696 404.709 241.516 C 402.3 241.306 399.857 241.426 397.431 241.486 C 396.459 241.509 395.86 241.244 395.373 240.368 C 393.98 237.861 392.524 235.386 391.008 232.948 C 390.45 232.051 390.512 231.371 391.045 230.491 C 392.586 227.948 394.002 225.333 395.534 222.785 C 395.751 222.424 396.324 222.099 396.756 222.066 C 398.043 221.968 399.343 222.024 400.788 222 Z M 406.852 227.216 C 406.27 225.491 404.989 225.308 403.272 225.084 C 399.149 224.545 396.685 225.965 395.075 229.728 C 394.382 231.345 394.526 232.348 395.16 233.874 C 396.673 237.514 399.036 238.946 403.078 238.425 C 404.904 238.19 405.876 237.726 407.008 236.24 C 409.378 233.127 409.607 230.353 406.852 227.216 Z M 403.674 222.668 C 401.381 222.668 399.088 222.668 396.71 222.668 C 397.316 224.024 399.613 224.314 405.487 223.87 C 405.99 223.832 406.458 223.362 406.942 223.093 C 406.869 222.951 406.795 222.81 406.721 222.668 C 405.81 222.668 404.898 222.668 403.674 222.668 Z M 398.575 240.822 C 401.311 240.822 404.046 240.822 406.781 240.822 C 406.849 240.671 406.916 240.519 406.983 240.368 C 406.483 240.097 405.989 239.609 405.48 239.592 C 403.01 239.51 400.535 239.512 398.065 239.591 C 397.575 239.606 397.101 240.087 396.619 240.354 C 396.692 240.51 396.764 240.666 396.837 240.822 C 397.315 240.822 397.793 240.822 398.575 240.822 Z M 387.072 226.1 C 387.67 225.086 388.215 224.175 388.767 223.253 C 390.73 224.918 391.042 225.923 389.615 227.914 C 387.863 230.358 387.372 232.482 389.424 235.109 C 391.21 237.396 390.976 237.572 388.818 240.159 C 387.201 237.411 385.598 234.742 384.08 232.028 C 383.917 231.737 384.155 231.133 384.364 230.758 C 385.216 229.222 386.128 227.719 387.072 226.1 Z M 413.086 236.758 C 415.757 233.668 416.053 230.704 413.291 227.579 C 411.793 225.884 413.795 224.909 414.378 223.253 C 416.146 226.278 417.732 228.969 419.28 231.682 C 419.404 231.898 419.364 232.315 419.232 232.545 C 417.695 235.201 416.126 237.838 414.346 240.853 C 413.926 239.225 412.169 238.539 413.086 236.758 Z" fill="#7468F6" transform="matrix(1, 0, 0, 1, 0, -1.4210854715202004e-14)"/>
</svg>